<?xml version="1.0" encoding="UTF-8"?>
<svg width="82px" height="60px" viewBox="0 0 82 60" version="1.1" xmlns="http://www.w3.org/2000/svg" xmlns:xlink="http://www.w3.org/1999/xlink">
    <!-- Generator: Sketch 52.6 (67491) - http://www.bohemiancoding.com/sketch -->
    <title>mdpi/explore-cities</title>
    <desc>Created with Sketch.</desc>
    <g id="Page-1" stroke="none" stroke-width="1" fill="none" fill-rule="evenodd">
        <g id="snippets-thumb" transform="translate(-191.000000, -13.000000)">
            <g id="explore-cities" transform="translate(191.000000, 13.000000)">
                <rect id="Rectangle" fill="#35979C" x="0" y="0" width="82" height="60"></rect>
                <g id="Group-3" transform="translate(7.000000, 26.000000)" fill-rule="nonzero">
                    <g id="Group-2" transform="translate(11.000000, 3.000000)" stroke="#FFFFFF" stroke-linecap="square">
                        <path d="M0,0.5 L7,0.5" id="Line-2"></path>
                        <path d="M0,3.5 L7,3.5" id="Line-2"></path>
                    </g>
                    <rect id="Rectangle" fill="#FFFFFF" x="0" y="0" width="9" height="9"></rect>
                </g>
                <g id="Group-3-Copy-3" transform="translate(7.000000, 41.000000)" fill-rule="nonzero">
                    <g id="Group-2" transform="translate(11.000000, 3.000000)" stroke="#FFFFFF" stroke-linecap="square">
                        <path d="M0,0.5 L7,0.5" id="Line-2"></path>
                        <path d="M0,3.5 L7,3.5" id="Line-2"></path>
                    </g>
                    <rect id="Rectangle" fill="#FFFFFF" x="0" y="0" width="9" height="9"></rect>
                </g>
                <g id="Group-3-Copy" transform="translate(32.000000, 26.000000)" fill-rule="nonzero">
                    <g id="Group-2" transform="translate(11.000000, 3.000000)" stroke="#FFFFFF" stroke-linecap="square">
                        <path d="M0,0.5 L7,0.5" id="Line-2"></path>
                        <path d="M0,3.5 L7,3.5" id="Line-2"></path>
                    </g>
                    <rect id="Rectangle" fill="#FFFFFF" x="0" y="0" width="9" height="9"></rect>
                </g>
                <g id="Group-3-Copy-4" transform="translate(32.000000, 41.000000)" fill-rule="nonzero">
                    <g id="Group-2" transform="translate(11.000000, 3.000000)" stroke="#FFFFFF" stroke-linecap="square">
                        <path d="M0,0.5 L7,0.5" id="Line-2"></path>
                        <path d="M0,3.5 L7,3.5" id="Line-2"></path>
                    </g>
                    <rect id="Rectangle" fill="#FFFFFF" x="0" y="0" width="9" height="9"></rect>
                </g>
                <g id="Group-3-Copy-2" transform="translate(57.000000, 26.000000)" fill-rule="nonzero">
                    <g id="Group-2" transform="translate(11.000000, 3.000000)" stroke="#FFFFFF" stroke-linecap="square">
                        <path d="M0,0.5 L7,0.5" id="Line-2"></path>
                        <path d="M0,3.5 L7,3.5" id="Line-2"></path>
                    </g>
                    <rect id="Rectangle" fill="#FFFFFF" x="0" y="0" width="9" height="9"></rect>
                </g>
                <g id="Group-3-Copy-5" transform="translate(57.000000, 41.000000)" fill-rule="nonzero">
                    <g id="Group-2" transform="translate(11.000000, 3.000000)" stroke="#FFFFFF" stroke-linecap="square">
                        <path d="M0,0.5 L7,0.5" id="Line-2"></path>
                        <path d="M0,3.5 L7,3.5" id="Line-2"></path>
                    </g>
                    <rect id="Rectangle" fill="#FFFFFF" x="0" y="0" width="9" height="9"></rect>
                </g>
                <path d="M11.5,15.5 L67,15.5" id="Line-3" stroke="#FFFFFF" stroke-width="2" stroke-linecap="square" fill-rule="nonzero"></path>
                <path d="M35,8.5 L46.9939575,8.5" id="Line-3-Copy" stroke="#FFFFFF" stroke-width="5" stroke-linecap="square" fill-rule="nonzero"></path>
            </g>
        </g>
    </g>
</svg>