<?xml version="1.0" encoding="UTF-8"?>
<svg width="82px" height="60px" viewBox="0 0 82 60" version="1.1" xmlns="http://www.w3.org/2000/svg" xmlns:xlink="http://www.w3.org/1999/xlink">
    <!-- Generator: Sketch 52.6 (67491) - http://www.bohemiancoding.com/sketch -->
    <title>mdpi/rent-mega-menu</title>
    <desc>Created with Sketch.</desc>
    <g id="Page-1" stroke="none" stroke-width="1" fill="none" fill-rule="evenodd">
        <g id="snippets-thumb" transform="translate(-13.000000, -85.000000)">
            <g id="rent-mega-menu" transform="translate(13.000000, 85.000000)">
                <rect id="Rectangle" fill="#35979C" x="0" y="0" width="82" height="60"></rect>
                <g id="Group" transform="translate(7.000000, 40.000000)" fill-rule="nonzero" stroke="#FFFFFF" stroke-linecap="square">
                    <path d="M0.5,0.5 L19,0.5" id="Line-2"></path>
                    <path d="M25,0.5 L44,0.5" id="Line-2-Copy"></path>
                    <path d="M51,0.5 L70,0.5" id="Line-2-Copy-2"></path>
                </g>
                <g id="Group-Copy-2" transform="translate(7.000000, 34.000000)" fill-rule="nonzero" stroke="#FFFFFF" stroke-linecap="square">
                    <path d="M0.5,0.5 L19,0.5" id="Line-2"></path>
                    <path d="M25,0.5 L44,0.5" id="Line-2-Copy"></path>
                    <path d="M51,0.5 L70,0.5" id="Line-2-Copy-2"></path>
                </g>
                <g id="Group-Copy-4" transform="translate(7.000000, 31.000000)" fill-rule="nonzero" stroke="#FFFFFF" stroke-linecap="square">
                    <path d="M0.5,0.5 L19,0.5" id="Line-2"></path>
                    <path d="M25,0.5 L44,0.5" id="Line-2-Copy"></path>
                    <path d="M51,0.5 L70,0.5" id="Line-2-Copy-2"></path>
                </g>
                <g id="Group-Copy" transform="translate(7.000000, 43.000000)" fill-rule="nonzero" stroke="#FFFFFF" stroke-linecap="square">
                    <path d="M0.5,0.5 L19,0.5" id="Line-2"></path>
                    <path d="M25,0.5 L44,0.5" id="Line-2-Copy"></path>
                    <path d="M51,0.5 L70,0.5" id="Line-2-Copy-2"></path>
                </g>
                <g id="Group-Copy-3" transform="translate(7.000000, 37.000000)" fill-rule="nonzero" stroke="#FFFFFF" stroke-linecap="square">
                    <path d="M0.5,0.5 L19,0.5" id="Line-2"></path>
                    <path d="M25,0.5 L44,0.5" id="Line-2-Copy"></path>
                    <path d="M51,0.5 L70,0.5" id="Line-2-Copy-2"></path>
                </g>
                <rect id="Rectangle" fill="#FFFFFF" fill-rule="nonzero" x="7" y="19" width="19" height="4"></rect>
                <rect id="Rectangle-Copy" fill="#FFFFFF" fill-rule="nonzero" x="32" y="19" width="19" height="4"></rect>
                <rect id="Rectangle-Copy-2" fill="#FFFFFF" fill-rule="nonzero" x="58" y="19" width="19" height="4"></rect>
            </g>
        </g>
    </g>
</svg>